<svg width="636" height="510" viewBox="0 0 636 510" fill="none" xmlns="http://www.w3.org/2000/svg">
<rect width="305.832" height="340.115" rx="20" transform="matrix(0.97237 0.233445 -0.627148 0.7789 310.302 87)" fill="#C4C4C4"/>
<rect width="305.832" height="340.115" rx="20" transform="matrix(0.97237 0.233445 -0.627148 0.7789 310.302 87)" fill="url(#paint0_linear)"/>
<g filter="url(#filter0_d)">
<path d="M396.725 185.224C392.167 184.13 372.046 179.735 347.165 192.06L359.806 176.361C367.449 166.868 363.889 156.428 352.038 153.583C347.936 152.598 342.541 154.57 340.042 157.674C337.396 160.96 338.529 164.282 342.631 165.266C346.505 166.197 347.719 169.756 345.22 172.859L307.591 219.593C302.3 226.165 304.565 232.809 312.77 234.778L352.88 244.408C354.703 244.846 357.555 244.005 358.878 242.362L361.23 239.442C363.729 236.338 362.515 232.779 358.641 231.849L351.348 230.098L394.63 219.576L373.464 245.864C372.141 247.507 372.707 249.168 374.758 249.66L382.051 251.411C383.874 251.849 386.726 251.009 388.049 249.366L418.329 211.76C415.381 211.705 412.808 211.523 410.301 210.921C396.171 207.529 390.788 196.652 396.725 185.224ZM446.844 176.344L432.259 172.842L427.08 157.657L407.237 182.302C399.447 191.977 402.698 202.125 415.005 205.08C427.083 207.98 443.203 202.482 450.994 192.807L470.837 168.162L446.844 176.344ZM418.677 187.009C416.625 186.516 416.059 184.856 417.382 183.213C418.558 181.752 421.329 180.675 423.38 181.167C425.203 181.605 425.851 183.503 424.675 184.963C423.352 186.606 420.5 187.447 418.677 187.009ZM436.909 191.386C434.857 190.894 434.291 189.233 435.614 187.59C436.79 186.129 439.561 185.052 441.612 185.544C443.435 185.982 444.083 187.88 442.907 189.341C441.584 190.984 438.732 191.824 436.909 191.386Z" fill="white"/>
</g>
<rect width="150.739" height="15.2372" rx="7.61858" transform="matrix(0.97237 0.233445 -0.627148 0.7789 198.878 248.913)" fill="#333C6F"/>
<rect width="93.0555" height="15.2372" rx="7.61858" transform="matrix(0.97237 0.233445 -0.627148 0.7789 181.131 270.954)" fill="#333C6F"/>
<rect width="232.911" height="15.2372" rx="7.61858" transform="matrix(0.97237 0.233445 -0.627148 0.7789 163.384 292.995)" fill="#333C6F"/>
<rect width="148.018" height="15.2372" rx="7.61858" transform="matrix(0.97237 0.233445 -0.627148 0.7789 145.638 315.036)" fill="#333C6F"/>
<circle cx="355.5" cy="260.5" r="192.5" stroke="url(#paint1_linear)" stroke-width="4" stroke-linecap="round" stroke-dasharray="8 20 20 20"/>
<path d="M193.721 231.792L491.102 303.187L406.924 407.733C399.997 416.336 385.675 421.221 374.934 418.642L116.447 356.585C105.707 354.006 102.616 344.941 109.543 336.338L193.721 231.792Z" fill="#C4C4C4"/>
<path d="M193.721 231.792L491.102 303.187L406.924 407.733C399.997 416.336 385.675 421.221 374.934 418.642L116.447 356.585C105.707 354.006 102.616 344.941 109.543 336.338L193.721 231.792Z" fill="url(#paint2_linear)"/>
<rect width="150.739" height="15.2372" rx="7.61858" transform="matrix(0.97237 0.233445 -0.627148 0.7789 198.878 248.913)" fill="#5E5E5E"/>
<rect width="93.0555" height="15.2372" rx="7.61858" transform="matrix(0.97237 0.233445 -0.627148 0.7789 181.131 270.954)" fill="#5E5E5E"/>
<rect width="232.911" height="15.2372" rx="7.61858" transform="matrix(0.97237 0.233445 -0.627148 0.7789 163.384 292.995)" fill="#5E5E5E"/>
<rect width="148.018" height="15.2372" rx="7.61858" transform="matrix(0.97237 0.233445 -0.627148 0.7789 145.638 315.036)" fill="#5E5E5E"/>
<g filter="url(#filter1_d)">
<rect x="12" y="162" width="169" height="54" rx="8" fill="url(#paint3_linear)"/>
<path d="M60.1094 192.51H55.7432L54.9131 195H52.2651L56.7642 182.914H59.0718L63.5957 195H60.9478L60.1094 192.51ZM56.4155 190.493H59.437L57.918 185.969L56.4155 190.493ZM69.8462 194.087C69.2541 194.806 68.4351 195.166 67.3892 195.166C66.4263 195.166 65.6903 194.889 65.1812 194.336C64.6776 193.783 64.4202 192.972 64.4092 191.904V186.019H66.8081V191.821C66.8081 192.756 67.2342 193.224 68.0864 193.224C68.8999 193.224 69.4588 192.941 69.7632 192.377V186.019H72.1704V195H69.9126L69.8462 194.087ZM76.8521 183.811V186.019H78.3877V187.778H76.8521V192.261C76.8521 192.593 76.9157 192.831 77.043 192.975C77.1702 193.118 77.4137 193.19 77.7734 193.19C78.0391 193.19 78.2743 193.171 78.479 193.132V194.95C78.0086 195.094 77.5244 195.166 77.0264 195.166C75.3441 195.166 74.4863 194.317 74.4531 192.618V187.778H73.1416V186.019H74.4531V183.811H76.8521ZM79.1016 190.426C79.1016 189.535 79.2731 188.741 79.6162 188.044C79.9593 187.347 80.4518 186.807 81.0938 186.425C81.7412 186.043 82.491 185.853 83.3433 185.853C84.5552 185.853 85.543 186.223 86.3066 186.965C87.0758 187.706 87.5047 188.714 87.5933 189.986L87.6099 190.601C87.6099 191.979 87.2253 193.085 86.4561 193.921C85.6868 194.751 84.6548 195.166 83.3599 195.166C82.0649 195.166 81.0301 194.751 80.2554 193.921C79.4862 193.091 79.1016 191.962 79.1016 190.534V190.426ZM81.5005 190.601C81.5005 191.453 81.661 192.106 81.9819 192.56C82.3029 193.008 82.7622 193.232 83.3599 193.232C83.9409 193.232 84.3947 193.011 84.7212 192.568C85.0477 192.12 85.2109 191.406 85.2109 190.426C85.2109 189.591 85.0477 188.943 84.7212 188.484C84.3947 188.025 83.9354 187.795 83.3433 187.795C82.7567 187.795 82.3029 188.025 81.9819 188.484C81.661 188.938 81.5005 189.643 81.5005 190.601ZM88.7388 190.443C88.7388 189.065 89.0653 187.955 89.7183 187.114C90.3768 186.273 91.2622 185.853 92.3745 185.853C93.3595 185.853 94.126 186.19 94.6738 186.865L94.7734 186.019H96.9482V194.701C96.9482 195.487 96.7684 196.17 96.4087 196.751C96.0545 197.333 95.5537 197.775 94.9062 198.08C94.2588 198.384 93.5007 198.536 92.6318 198.536C91.9733 198.536 91.3314 198.403 90.7061 198.138C90.0807 197.878 89.6076 197.54 89.2866 197.125L90.3491 195.664C90.9468 196.334 91.6717 196.668 92.5239 196.668C93.1603 196.668 93.6556 196.497 94.0098 196.154C94.3639 195.816 94.541 195.335 94.541 194.709V194.228C93.9876 194.853 93.2599 195.166 92.3579 195.166C91.2788 195.166 90.4045 194.745 89.7349 193.904C89.0708 193.058 88.7388 191.937 88.7388 190.542V190.443ZM91.1377 190.617C91.1377 191.431 91.3009 192.07 91.6274 192.535C91.9539 192.994 92.4022 193.224 92.9722 193.224C93.7026 193.224 94.2256 192.95 94.541 192.402V188.625C94.2201 188.077 93.7026 187.803 92.9888 187.803C92.4132 187.803 91.9595 188.038 91.6274 188.509C91.3009 188.979 91.1377 189.682 91.1377 190.617ZM103.846 188.268C103.52 188.224 103.232 188.202 102.983 188.202C102.075 188.202 101.48 188.509 101.198 189.123V195H98.7993V186.019H101.065L101.132 187.089C101.613 186.265 102.28 185.853 103.132 185.853C103.398 185.853 103.647 185.889 103.879 185.96L103.846 188.268ZM109.964 195C109.853 194.784 109.773 194.516 109.723 194.195C109.142 194.842 108.387 195.166 107.457 195.166C106.577 195.166 105.847 194.911 105.266 194.402C104.69 193.893 104.402 193.251 104.402 192.477C104.402 191.525 104.754 190.794 105.457 190.285C106.165 189.776 107.186 189.519 108.52 189.513H109.624V188.999C109.624 188.583 109.516 188.251 109.3 188.002C109.09 187.753 108.755 187.629 108.295 187.629C107.891 187.629 107.573 187.726 107.341 187.919C107.114 188.113 107 188.379 107 188.716H104.602C104.602 188.196 104.762 187.715 105.083 187.272C105.404 186.829 105.858 186.483 106.444 186.234C107.031 185.98 107.689 185.853 108.42 185.853C109.527 185.853 110.404 186.132 111.051 186.691C111.704 187.244 112.031 188.025 112.031 189.032V192.925C112.036 193.777 112.155 194.422 112.388 194.859V195H109.964ZM107.98 193.332C108.334 193.332 108.661 193.254 108.959 193.099C109.258 192.939 109.48 192.726 109.624 192.46V190.916H108.727C107.526 190.916 106.887 191.331 106.81 192.161L106.801 192.302C106.801 192.601 106.906 192.847 107.117 193.041C107.327 193.235 107.615 193.332 107.98 193.332ZM121.958 190.592C121.958 191.976 121.643 193.085 121.012 193.921C120.387 194.751 119.54 195.166 118.472 195.166C117.565 195.166 116.831 194.851 116.272 194.22V198.453H113.874V186.019H116.098L116.181 186.898C116.762 186.201 117.52 185.853 118.456 185.853C119.562 185.853 120.423 186.262 121.037 187.081C121.651 187.9 121.958 189.029 121.958 190.468V190.592ZM119.56 190.418C119.56 189.582 119.41 188.938 119.111 188.484C118.818 188.03 118.389 187.803 117.825 187.803C117.072 187.803 116.555 188.091 116.272 188.667V192.344C116.566 192.936 117.089 193.232 117.841 193.232C118.987 193.232 119.56 192.294 119.56 190.418ZM125.793 186.998C126.43 186.234 127.229 185.853 128.192 185.853C130.14 185.853 131.128 186.984 131.156 189.248V195H128.757V189.314C128.757 188.799 128.646 188.42 128.425 188.177C128.203 187.928 127.835 187.803 127.321 187.803C126.618 187.803 126.109 188.074 125.793 188.617V195H123.395V182.25H125.793V186.998ZM137.83 192.518C137.83 192.225 137.683 191.995 137.39 191.829C137.102 191.658 136.637 191.505 135.995 191.373C133.859 190.924 132.791 190.017 132.791 188.65C132.791 187.853 133.12 187.189 133.779 186.658C134.443 186.121 135.309 185.853 136.377 185.853C137.517 185.853 138.427 186.121 139.108 186.658C139.794 187.194 140.137 187.892 140.137 188.75H137.738C137.738 188.406 137.628 188.124 137.406 187.903C137.185 187.676 136.839 187.562 136.369 187.562C135.965 187.562 135.652 187.654 135.431 187.836C135.209 188.019 135.099 188.251 135.099 188.534C135.099 188.799 135.223 189.015 135.472 189.181C135.727 189.342 136.153 189.483 136.75 189.604C137.348 189.721 137.852 189.854 138.261 190.003C139.528 190.468 140.162 191.273 140.162 192.418C140.162 193.237 139.811 193.902 139.108 194.411C138.405 194.914 137.498 195.166 136.385 195.166C135.633 195.166 134.963 195.033 134.376 194.768C133.795 194.496 133.339 194.128 133.007 193.664C132.675 193.193 132.509 192.687 132.509 192.145H134.783C134.805 192.571 134.963 192.897 135.256 193.124C135.55 193.351 135.943 193.464 136.435 193.464C136.894 193.464 137.24 193.379 137.473 193.207C137.711 193.03 137.83 192.8 137.83 192.518Z" fill="white"/>
</g>
<g filter="url(#filter2_d)">
<rect x="487" y="87" width="133" height="54" rx="8" fill="url(#paint4_linear)"/>
<path d="M532.657 117.003L535.396 107.914H538.168L533.96 120H531.362L527.17 107.914H529.934L532.657 117.003ZM541.688 120H539.281V111.019H541.688V120ZM539.14 108.694C539.14 108.335 539.259 108.039 539.497 107.806C539.74 107.574 540.069 107.458 540.484 107.458C540.894 107.458 541.22 107.574 541.464 107.806C541.707 108.039 541.829 108.335 541.829 108.694C541.829 109.06 541.705 109.358 541.456 109.591C541.212 109.823 540.888 109.939 540.484 109.939C540.08 109.939 539.754 109.823 539.505 109.591C539.261 109.358 539.14 109.06 539.14 108.694ZM543.298 115.443C543.298 114.043 543.611 112.928 544.236 112.098C544.867 111.268 545.728 110.853 546.818 110.853C547.692 110.853 548.414 111.179 548.984 111.832V107.25H551.392V120H549.225L549.109 119.045C548.511 119.792 547.742 120.166 546.801 120.166C545.744 120.166 544.895 119.751 544.253 118.921C543.617 118.085 543.298 116.926 543.298 115.443ZM545.697 115.617C545.697 116.458 545.844 117.103 546.137 117.551C546.431 118 546.857 118.224 547.416 118.224C548.157 118.224 548.68 117.911 548.984 117.286V113.741C548.686 113.116 548.168 112.803 547.432 112.803C546.276 112.803 545.697 113.741 545.697 115.617ZM557.385 120.166C556.068 120.166 554.994 119.762 554.164 118.954C553.34 118.146 552.927 117.07 552.927 115.725V115.493C552.927 114.591 553.102 113.785 553.45 113.077C553.799 112.363 554.291 111.815 554.928 111.434C555.57 111.046 556.3 110.853 557.119 110.853C558.348 110.853 559.313 111.24 560.016 112.015C560.724 112.789 561.079 113.888 561.079 115.31V116.29H555.359C555.437 116.876 555.669 117.347 556.057 117.701C556.45 118.055 556.945 118.232 557.542 118.232C558.467 118.232 559.189 117.897 559.709 117.228L560.888 118.547C560.528 119.056 560.041 119.455 559.427 119.743C558.812 120.025 558.132 120.166 557.385 120.166ZM557.111 112.795C556.635 112.795 556.248 112.955 555.949 113.276C555.655 113.597 555.467 114.057 555.384 114.654H558.721V114.463C558.71 113.932 558.566 113.523 558.29 113.235C558.013 112.942 557.62 112.795 557.111 112.795ZM562.075 115.426C562.075 114.535 562.246 113.741 562.589 113.044C562.932 112.347 563.425 111.807 564.067 111.425C564.714 111.043 565.464 110.853 566.316 110.853C567.528 110.853 568.516 111.223 569.28 111.965C570.049 112.706 570.478 113.714 570.566 114.986L570.583 115.601C570.583 116.979 570.198 118.085 569.429 118.921C568.66 119.751 567.628 120.166 566.333 120.166C565.038 120.166 564.003 119.751 563.229 118.921C562.459 118.091 562.075 116.962 562.075 115.534V115.426ZM564.474 115.601C564.474 116.453 564.634 117.106 564.955 117.56C565.276 118.008 565.735 118.232 566.333 118.232C566.914 118.232 567.368 118.011 567.694 117.568C568.021 117.12 568.184 116.406 568.184 115.426C568.184 114.591 568.021 113.943 567.694 113.484C567.368 113.025 566.909 112.795 566.316 112.795C565.73 112.795 565.276 113.025 564.955 113.484C564.634 113.938 564.474 114.643 564.474 115.601ZM576.925 117.518C576.925 117.225 576.778 116.995 576.485 116.829C576.197 116.658 575.732 116.505 575.09 116.373C572.954 115.924 571.886 115.017 571.886 113.65C571.886 112.853 572.215 112.189 572.874 111.658C573.538 111.121 574.404 110.853 575.472 110.853C576.612 110.853 577.522 111.121 578.203 111.658C578.889 112.194 579.232 112.892 579.232 113.75H576.833C576.833 113.406 576.723 113.124 576.501 112.903C576.28 112.676 575.934 112.562 575.464 112.562C575.06 112.562 574.747 112.654 574.526 112.836C574.305 113.019 574.194 113.251 574.194 113.534C574.194 113.799 574.318 114.015 574.567 114.181C574.822 114.342 575.248 114.483 575.846 114.604C576.443 114.721 576.947 114.854 577.356 115.003C578.624 115.468 579.257 116.273 579.257 117.418C579.257 118.237 578.906 118.902 578.203 119.411C577.5 119.914 576.593 120.166 575.48 120.166C574.728 120.166 574.058 120.033 573.472 119.768C572.891 119.496 572.434 119.128 572.102 118.664C571.77 118.193 571.604 117.687 571.604 117.145H573.878C573.901 117.571 574.058 117.897 574.352 118.124C574.645 118.351 575.038 118.464 575.53 118.464C575.99 118.464 576.335 118.379 576.568 118.207C576.806 118.03 576.925 117.8 576.925 117.518Z" fill="white"/>
</g>
<g filter="url(#filter3_d)">
<rect x="383" y="438" width="226" height="54" rx="8" fill="url(#paint5_linear)"/>
<path d="M426.846 466.742V471H424.356V458.914H429.071C429.978 458.914 430.775 459.08 431.461 459.412C432.153 459.744 432.684 460.217 433.055 460.832C433.426 461.44 433.611 462.135 433.611 462.915C433.611 464.099 433.205 465.035 432.391 465.721C431.583 466.401 430.463 466.742 429.029 466.742H426.846ZM426.846 464.725H429.071C429.729 464.725 430.23 464.57 430.573 464.26C430.922 463.95 431.096 463.507 431.096 462.932C431.096 462.34 430.922 461.861 430.573 461.496C430.225 461.13 429.743 460.942 429.129 460.931H426.846V464.725ZM440.219 464.268C439.892 464.224 439.604 464.202 439.355 464.202C438.448 464.202 437.853 464.509 437.571 465.123V471H435.172V462.019H437.438L437.504 463.089C437.986 462.265 438.653 461.853 439.505 461.853C439.771 461.853 440.02 461.889 440.252 461.96L440.219 464.268ZM443.913 471H441.505V462.019H443.913V471ZM441.364 459.694C441.364 459.335 441.483 459.039 441.721 458.806C441.965 458.574 442.294 458.458 442.709 458.458C443.118 458.458 443.445 458.574 443.688 458.806C443.932 459.039 444.054 459.335 444.054 459.694C444.054 460.06 443.929 460.358 443.68 460.591C443.437 460.823 443.113 460.939 442.709 460.939C442.305 460.939 441.979 460.823 441.729 460.591C441.486 460.358 441.364 460.06 441.364 459.694ZM449.258 468.07L450.927 462.019H453.434L450.404 471H448.113L445.083 462.019H447.59L449.258 468.07ZM459.568 471C459.457 470.784 459.377 470.516 459.327 470.195C458.746 470.842 457.991 471.166 457.061 471.166C456.181 471.166 455.451 470.911 454.87 470.402C454.294 469.893 454.006 469.251 454.006 468.477C454.006 467.525 454.358 466.794 455.061 466.285C455.769 465.776 456.79 465.519 458.124 465.513H459.228V464.999C459.228 464.583 459.12 464.251 458.904 464.002C458.694 463.753 458.359 463.629 457.899 463.629C457.495 463.629 457.177 463.726 456.945 463.919C456.718 464.113 456.604 464.379 456.604 464.716H454.206C454.206 464.196 454.366 463.715 454.687 463.272C455.008 462.829 455.462 462.483 456.048 462.234C456.635 461.98 457.293 461.853 458.024 461.853C459.131 461.853 460.008 462.132 460.655 462.691C461.308 463.244 461.635 464.025 461.635 465.032V468.925C461.64 469.777 461.759 470.422 461.992 470.859V471H459.568ZM457.584 469.332C457.938 469.332 458.265 469.254 458.563 469.099C458.862 468.939 459.084 468.726 459.228 468.46V466.916H458.331C457.13 466.916 456.491 467.331 456.414 468.161L456.405 468.302C456.405 468.601 456.51 468.847 456.721 469.041C456.931 469.235 457.219 469.332 457.584 469.332ZM466.35 459.811V462.019H467.885V463.778H466.35V468.261C466.35 468.593 466.413 468.831 466.541 468.975C466.668 469.118 466.911 469.19 467.271 469.19C467.537 469.19 467.772 469.171 467.977 469.132V470.95C467.506 471.094 467.022 471.166 466.524 471.166C464.842 471.166 463.984 470.317 463.951 468.618V463.778H462.639V462.019H463.951V459.811H466.35ZM473.355 471.166C472.038 471.166 470.965 470.762 470.135 469.954C469.31 469.146 468.898 468.07 468.898 466.725V466.493C468.898 465.591 469.072 464.785 469.421 464.077C469.77 463.363 470.262 462.815 470.898 462.434C471.54 462.046 472.271 461.853 473.09 461.853C474.318 461.853 475.284 462.24 475.987 463.015C476.695 463.789 477.049 464.888 477.049 466.31V467.29H471.33C471.408 467.876 471.64 468.347 472.027 468.701C472.42 469.055 472.916 469.232 473.513 469.232C474.437 469.232 475.16 468.897 475.68 468.228L476.858 469.547C476.499 470.056 476.012 470.455 475.397 470.743C474.783 471.025 474.103 471.166 473.355 471.166ZM473.082 463.795C472.606 463.795 472.218 463.955 471.919 464.276C471.626 464.597 471.438 465.057 471.355 465.654H474.692V465.463C474.681 464.932 474.537 464.523 474.26 464.235C473.984 463.942 473.591 463.795 473.082 463.795ZM482.81 471V458.914H486.529C487.591 458.914 488.54 459.155 489.376 459.636C490.217 460.112 490.873 460.793 491.343 461.678C491.814 462.558 492.049 463.56 492.049 464.683V465.239C492.049 466.363 491.816 467.361 491.352 468.236C490.892 469.11 490.242 469.788 489.401 470.27C488.56 470.751 487.611 470.994 486.554 471H482.81ZM485.3 460.931V469H486.504C487.478 469 488.222 468.681 488.737 468.045C489.251 467.409 489.514 466.498 489.525 465.314V464.675C489.525 463.446 489.271 462.517 488.762 461.886C488.253 461.249 487.508 460.931 486.529 460.931H485.3ZM493.335 466.426C493.335 465.535 493.507 464.741 493.85 464.044C494.193 463.347 494.686 462.807 495.328 462.425C495.975 462.043 496.725 461.853 497.577 461.853C498.789 461.853 499.777 462.223 500.541 462.965C501.31 463.706 501.739 464.714 501.827 465.986L501.844 466.601C501.844 467.979 501.459 469.085 500.69 469.921C499.921 470.751 498.889 471.166 497.594 471.166C496.299 471.166 495.264 470.751 494.489 469.921C493.72 469.091 493.335 467.962 493.335 466.534V466.426ZM495.734 466.601C495.734 467.453 495.895 468.106 496.216 468.56C496.537 469.008 496.996 469.232 497.594 469.232C498.175 469.232 498.629 469.011 498.955 468.568C499.282 468.12 499.445 467.406 499.445 466.426C499.445 465.591 499.282 464.943 498.955 464.484C498.629 464.025 498.169 463.795 497.577 463.795C496.991 463.795 496.537 464.025 496.216 464.484C495.895 464.938 495.734 465.643 495.734 466.601ZM507.057 469.232C507.499 469.232 507.859 469.11 508.136 468.867C508.412 468.623 508.556 468.299 508.567 467.896H510.817C510.811 468.504 510.645 469.063 510.319 469.572C509.992 470.076 509.544 470.469 508.974 470.751C508.41 471.028 507.784 471.166 507.098 471.166C505.814 471.166 504.802 470.759 504.06 469.946C503.319 469.127 502.948 467.998 502.948 466.559V466.401C502.948 465.018 503.316 463.914 504.052 463.089C504.788 462.265 505.798 461.853 507.082 461.853C508.205 461.853 509.104 462.174 509.779 462.815C510.46 463.452 510.806 464.301 510.817 465.364H508.567C508.556 464.899 508.412 464.523 508.136 464.235C507.859 463.942 507.494 463.795 507.04 463.795C506.481 463.795 506.058 464 505.77 464.409C505.488 464.813 505.347 465.472 505.347 466.385V466.634C505.347 467.558 505.488 468.222 505.77 468.626C506.052 469.03 506.481 469.232 507.057 469.232ZM517.565 470.087C516.973 470.806 516.154 471.166 515.108 471.166C514.146 471.166 513.41 470.889 512.9 470.336C512.397 469.783 512.139 468.972 512.128 467.904V462.019H514.527V467.821C514.527 468.756 514.953 469.224 515.806 469.224C516.619 469.224 517.178 468.941 517.482 468.377V462.019H519.89V471H517.632L517.565 470.087ZM523.949 462.019L524.023 463.023C524.66 462.243 525.52 461.853 526.605 461.853C527.762 461.853 528.556 462.309 528.987 463.222C529.618 462.309 530.517 461.853 531.685 461.853C532.659 461.853 533.384 462.138 533.86 462.708C534.336 463.272 534.574 464.124 534.574 465.264V471H532.167V465.272C532.167 464.763 532.067 464.393 531.868 464.16C531.668 463.922 531.317 463.803 530.813 463.803C530.094 463.803 529.596 464.146 529.319 464.833L529.328 471H526.929V465.281C526.929 464.761 526.826 464.384 526.622 464.152C526.417 463.919 526.068 463.803 525.576 463.803C524.895 463.803 524.403 464.085 524.098 464.65V471H521.699V462.019H523.949ZM540.559 471.166C539.242 471.166 538.168 470.762 537.338 469.954C536.513 469.146 536.101 468.07 536.101 466.725V466.493C536.101 465.591 536.275 464.785 536.624 464.077C536.973 463.363 537.465 462.815 538.102 462.434C538.743 462.046 539.474 461.853 540.293 461.853C541.521 461.853 542.487 462.24 543.19 463.015C543.898 463.789 544.252 464.888 544.252 466.31V467.29H538.533C538.611 467.876 538.843 468.347 539.23 468.701C539.623 469.055 540.119 469.232 540.716 469.232C541.64 469.232 542.363 468.897 542.883 468.228L544.062 469.547C543.702 470.056 543.215 470.455 542.601 470.743C541.986 471.025 541.306 471.166 540.559 471.166ZM540.285 463.795C539.809 463.795 539.421 463.955 539.123 464.276C538.829 464.597 538.641 465.057 538.558 465.654H541.895V465.463C541.884 464.932 541.74 464.523 541.463 464.235C541.187 463.942 540.794 463.795 540.285 463.795ZM547.83 462.019L547.905 463.056C548.547 462.254 549.407 461.853 550.486 461.853C551.438 461.853 552.146 462.132 552.611 462.691C553.076 463.25 553.314 464.085 553.325 465.198V471H550.926V465.256C550.926 464.747 550.816 464.379 550.594 464.152C550.373 463.919 550.005 463.803 549.49 463.803C548.815 463.803 548.309 464.091 547.971 464.667V471H545.572V462.019H547.83ZM558.023 459.811V462.019H559.559V463.778H558.023V468.261C558.023 468.593 558.087 468.831 558.214 468.975C558.342 469.118 558.585 469.19 558.945 469.19C559.21 469.19 559.446 469.171 559.65 469.132V470.95C559.18 471.094 558.696 471.166 558.198 471.166C556.515 471.166 555.658 470.317 555.625 468.618V463.778H554.313V462.019H555.625V459.811H558.023ZM565.76 468.518C565.76 468.225 565.613 467.995 565.32 467.829C565.032 467.658 564.567 467.505 563.925 467.373C561.789 466.924 560.721 466.017 560.721 464.65C560.721 463.853 561.05 463.189 561.709 462.658C562.373 462.121 563.239 461.853 564.307 461.853C565.447 461.853 566.357 462.121 567.038 462.658C567.724 463.194 568.067 463.892 568.067 464.75H565.668C565.668 464.406 565.558 464.124 565.336 463.903C565.115 463.676 564.769 463.562 564.299 463.562C563.895 463.562 563.582 463.654 563.361 463.836C563.139 464.019 563.029 464.251 563.029 464.534C563.029 464.799 563.153 465.015 563.402 465.181C563.657 465.342 564.083 465.483 564.681 465.604C565.278 465.721 565.782 465.854 566.191 466.003C567.459 466.468 568.092 467.273 568.092 468.418C568.092 469.237 567.741 469.902 567.038 470.411C566.335 470.914 565.428 471.166 564.315 471.166C563.563 471.166 562.893 471.033 562.307 470.768C561.726 470.496 561.269 470.128 560.937 469.664C560.605 469.193 560.439 468.687 560.439 468.145H562.713C562.736 468.571 562.893 468.897 563.187 469.124C563.48 469.351 563.873 469.464 564.365 469.464C564.825 469.464 565.17 469.379 565.403 469.207C565.641 469.03 565.76 468.8 565.76 468.518Z" fill="white"/>
</g>
<g filter="url(#filter4_d)">
<circle cx="238" cy="31" r="25" fill="url(#paint6_linear)"/>
<path d="M245.406 37C246.27 37 247 36.3027 247 35.4062V25.8438C247 24.9805 246.27 24.25 245.406 24.25H231.594C230.697 24.25 230 24.9805 230 25.8438V35.4062C230 36.3027 230.697 37 231.594 37H245.406ZM233.719 26.1094C234.715 26.1094 235.578 26.9727 235.578 27.9688C235.578 28.998 234.715 29.8281 233.719 29.8281C232.689 29.8281 231.859 28.998 231.859 27.9688C231.859 26.9727 232.689 26.1094 233.719 26.1094ZM232.125 34.875V33.2812L234.482 30.9238C234.648 30.7578 234.881 30.7578 235.047 30.9238L236.906 32.75L241.389 28.2676C241.555 28.1016 241.787 28.1016 241.953 28.2676L244.875 31.1562V34.875H232.125Z" fill="white"/>
</g>
<g filter="url(#filter5_d)">
<circle cx="599" cy="310" r="25" fill="url(#paint7_linear)"/>
<path d="M600.594 303.25H590.998C590.135 303.25 589.438 303.98 589.438 304.844V314.439C589.438 315.303 590.135 316 590.998 316H600.594C601.457 316 602.188 315.303 602.188 314.439V304.844C602.188 303.98 601.457 303.25 600.594 303.25ZM606.869 304.512L603.25 307.035V312.248L606.869 314.771C607.566 315.236 608.562 314.738 608.562 313.908V305.375C608.562 304.545 607.566 304.047 606.869 304.512Z" fill="white"/>
</g>
<g filter="url(#filter6_d)">
<circle cx="154" cy="427" r="25" fill="url(#paint8_linear)"/>
<path d="M160.605 418.191L149.98 421.312C149.549 421.479 149.25 421.877 149.25 422.342V431.008C148.885 430.941 148.553 430.908 148.188 430.875C146.428 430.875 145 431.838 145 433C145 434.195 146.428 435.125 148.188 435.125C149.947 435.125 151.375 434.195 151.375 433V425.264L159.875 422.773V428.883C159.51 428.816 159.178 428.783 158.812 428.75C157.053 428.75 155.625 429.713 155.625 430.875C155.625 432.07 157.053 433 158.812 433C160.572 433 162 432.07 162 430.875V419.188C161.967 418.623 161.502 418.158 160.938 418.158C160.805 418.158 160.705 418.158 160.605 418.191Z" fill="white"/>
</g>
<defs>
<filter id="filter0_d" x="286.739" y="144.328" width="202.098" height="134.198" filterUnits="userSpaceOnUse" color-interpolation-filters="sRGB">
<feFlood flood-opacity="0" result="BackgroundImageFix"/>
<feColorMatrix in="SourceAlpha" type="matrix" values="0 0 0 0 0 0 0 0 0 0 0 0 0 0 0 0 0 0 127 0"/>
<feOffset dy="9"/>
<feGaussianBlur stdDeviation="9"/>
<feColorMatrix type="matrix" values="0 0 0 0 1 0 0 0 0 1 0 0 0 0 1 0 0 0 0.35 0"/>
<feBlend mode="normal" in2="BackgroundImageFix" result="effect1_dropShadow"/>
<feBlend mode="normal" in="SourceGraphic" in2="effect1_dropShadow" result="shape"/>
</filter>
<filter id="filter1_d" x="0" y="156" width="193" height="78" filterUnits="userSpaceOnUse" color-interpolation-filters="sRGB">
<feFlood flood-opacity="0" result="BackgroundImageFix"/>
<feColorMatrix in="SourceAlpha" type="matrix" values="0 0 0 0 0 0 0 0 0 0 0 0 0 0 0 0 0 0 127 0"/>
<feOffset dy="6"/>
<feGaussianBlur stdDeviation="6"/>
<feColorMatrix type="matrix" values="0 0 0 0 0 0 0 0 0 0 0 0 0 0 0 0 0 0 0.25 0"/>
<feBlend mode="normal" in2="BackgroundImageFix" result="effect1_dropShadow"/>
<feBlend mode="normal" in="SourceGraphic" in2="effect1_dropShadow" result="shape"/>
</filter>
<filter id="filter2_d" x="475" y="81" width="157" height="78" filterUnits="userSpaceOnUse" color-interpolation-filters="sRGB">
<feFlood flood-opacity="0" result="BackgroundImageFix"/>
<feColorMatrix in="SourceAlpha" type="matrix" values="0 0 0 0 0 0 0 0 0 0 0 0 0 0 0 0 0 0 127 0"/>
<feOffset dy="6"/>
<feGaussianBlur stdDeviation="6"/>
<feColorMatrix type="matrix" values="0 0 0 0 0 0 0 0 0 0 0 0 0 0 0 0 0 0 0.25 0"/>
<feBlend mode="normal" in2="BackgroundImageFix" result="effect1_dropShadow"/>
<feBlend mode="normal" in="SourceGraphic" in2="effect1_dropShadow" result="shape"/>
</filter>
<filter id="filter3_d" x="371" y="432" width="250" height="78" filterUnits="userSpaceOnUse" color-interpolation-filters="sRGB">
<feFlood flood-opacity="0" result="BackgroundImageFix"/>
<feColorMatrix in="SourceAlpha" type="matrix" values="0 0 0 0 0 0 0 0 0 0 0 0 0 0 0 0 0 0 127 0"/>
<feOffset dy="6"/>
<feGaussianBlur stdDeviation="6"/>
<feColorMatrix type="matrix" values="0 0 0 0 0 0 0 0 0 0 0 0 0 0 0 0 0 0 0.25 0"/>
<feBlend mode="normal" in2="BackgroundImageFix" result="effect1_dropShadow"/>
<feBlend mode="normal" in="SourceGraphic" in2="effect1_dropShadow" result="shape"/>
</filter>
<filter id="filter4_d" x="201" y="0" width="74" height="74" filterUnits="userSpaceOnUse" color-interpolation-filters="sRGB">
<feFlood flood-opacity="0" result="BackgroundImageFix"/>
<feColorMatrix in="SourceAlpha" type="matrix" values="0 0 0 0 0 0 0 0 0 0 0 0 0 0 0 0 0 0 127 0"/>
<feOffset dy="6"/>
<feGaussianBlur stdDeviation="6"/>
<feColorMatrix type="matrix" values="0 0 0 0 0 0 0 0 0 0 0 0 0 0 0 0 0 0 0.25 0"/>
<feBlend mode="normal" in2="BackgroundImageFix" result="effect1_dropShadow"/>
<feBlend mode="normal" in="SourceGraphic" in2="effect1_dropShadow" result="shape"/>
</filter>
<filter id="filter5_d" x="562" y="279" width="74" height="74" filterUnits="userSpaceOnUse" color-interpolation-filters="sRGB">
<feFlood flood-opacity="0" result="BackgroundImageFix"/>
<feColorMatrix in="SourceAlpha" type="matrix" values="0 0 0 0 0 0 0 0 0 0 0 0 0 0 0 0 0 0 127 0"/>
<feOffset dy="6"/>
<feGaussianBlur stdDeviation="6"/>
<feColorMatrix type="matrix" values="0 0 0 0 0 0 0 0 0 0 0 0 0 0 0 0 0 0 0.25 0"/>
<feBlend mode="normal" in2="BackgroundImageFix" result="effect1_dropShadow"/>
<feBlend mode="normal" in="SourceGraphic" in2="effect1_dropShadow" result="shape"/>
</filter>
<filter id="filter6_d" x="117" y="396" width="74" height="74" filterUnits="userSpaceOnUse" color-interpolation-filters="sRGB">
<feFlood flood-opacity="0" result="BackgroundImageFix"/>
<feColorMatrix in="SourceAlpha" type="matrix" values="0 0 0 0 0 0 0 0 0 0 0 0 0 0 0 0 0 0 127 0"/>
<feOffset dy="6"/>
<feGaussianBlur stdDeviation="6"/>
<feColorMatrix type="matrix" values="0 0 0 0 0 0 0 0 0 0 0 0 0 0 0 0 0 0 0.25 0"/>
<feBlend mode="normal" in2="BackgroundImageFix" result="effect1_dropShadow"/>
<feBlend mode="normal" in="SourceGraphic" in2="effect1_dropShadow" result="shape"/>
</filter>
<linearGradient id="paint0_linear" x1="152.916" y1="0" x2="152.916" y2="340.115" gradientUnits="userSpaceOnUse">
<stop stop-color="#424242"/>
<stop offset="1" stop-color="#1D1D1D"/>
</linearGradient>
<linearGradient id="paint1_linear" x1="163" y1="68" x2="619.986" y2="196.003" gradientUnits="userSpaceOnUse">
<stop stop-color="#0075FF"/>
<stop offset="0.0001" stop-color="#0075FF"/>
<stop offset="1" stop-color="#FF00D6"/>
</linearGradient>
<linearGradient id="paint2_linear" x1="342.411" y1="267.489" x2="309.873" y2="403.022" gradientUnits="userSpaceOnUse">
<stop stop-color="#282828"/>
<stop offset="1" stop-color="#0A0A0A"/>
</linearGradient>
<linearGradient id="paint3_linear" x1="12" y1="162" x2="134.331" y2="269.238" gradientUnits="userSpaceOnUse">
<stop offset="0.0001" stop-color="#008E1F"/>
<stop offset="1" stop-color="#0098B9"/>
</linearGradient>
<linearGradient id="paint4_linear" x1="487" y1="87" x2="602.353" y2="166.58" gradientUnits="userSpaceOnUse">
<stop stop-color="#0075FF"/>
<stop offset="0.0001" stop-color="#0094FF"/>
<stop offset="1" stop-color="#0075FF"/>
</linearGradient>
<linearGradient id="paint5_linear" x1="383" y1="438" x2="504.85" y2="580.843" gradientUnits="userSpaceOnUse">
<stop stop-color="#D9C516"/>
<stop offset="0.0001" stop-color="#DC9100"/>
<stop offset="1" stop-color="#EA2655"/>
</linearGradient>
<linearGradient id="paint6_linear" x1="213" y1="6" x2="272.349" y2="22.6238" gradientUnits="userSpaceOnUse">
<stop stop-color="#D9C516"/>
<stop offset="0.0001" stop-color="#DC9100"/>
<stop offset="1" stop-color="#EA2655"/>
</linearGradient>
<linearGradient id="paint7_linear" x1="574" y1="285" x2="633.349" y2="301.624" gradientUnits="userSpaceOnUse">
<stop offset="0.0001" stop-color="#008E1F"/>
<stop offset="1" stop-color="#0098B9"/>
</linearGradient>
<linearGradient id="paint8_linear" x1="129" y1="402" x2="188.349" y2="418.624" gradientUnits="userSpaceOnUse">
<stop stop-color="#0075FF"/>
<stop offset="0.0001" stop-color="#0094FF"/>
<stop offset="1" stop-color="#0075FF"/>
</linearGradient>
</defs>
</svg>
